<svg id="Layer_1" data-name="Layer 1" xmlns="http://www.w3.org/2000/svg" viewBox="0 0 183.39 185.08"><defs><style>.cls-1,.cls-2,.cls-3{fill:none;stroke:#000;stroke-miterlimit:10;}.cls-1{stroke-width:3px;}.cls-2{stroke-width:0.75px;}.cls-3{stroke-width:1.5px;}</style></defs><title>diltaBlack</title><polyline class="cls-1" points="6.67 1.5 103.34 1.5 176.72 1.5"/><polyline class="cls-1" points="6.67 183.58 103.34 183.58 176.72 183.58"/><path class="cls-2" d="M200.36,109.18V291.25a104.54,104.54,0,0,1,0-182.07Z" transform="translate(-108.66 -107.67)"/><path class="cls-2" d="M200.36,109.18V291.25a104.55,104.55,0,0,0,0-182.07Z" transform="translate(-108.66 -107.67)"/><path class="cls-2" d="M291.73,200.24a105.14,105.14,0,0,1-182.74,0" transform="translate(-108.66 -107.67)"/><path class="cls-2" d="M291.73,200.24a105.09,105.09,0,0,0-182.74,0" transform="translate(-108.66 -107.67)"/><line class="cls-3" x1="91.7" y1="1.51" x2="91.7" y2="183.58"/></svg>